<svg xmlns="http://www.w3.org/2000/svg" viewBox="0 0 415.53 65.28"><defs><style>.cls-1{fill:#cce9f9;}.cls-2{fill:#346fb6;}.cls-3{fill:#55b2af;}.cls-4{fill:#e73958;}.cls-5{fill:#323333;}</style></defs><g id="レイヤー_2" data-name="レイヤー 2"><g id="contents"><path class="cls-1" d="M32.64,56A23.31,23.31,0,1,1,56,32.64,23.33,23.33,0,0,1,32.64,56Zm0-43A19.73,19.73,0,1,0,52.37,32.64,19.75,19.75,0,0,0,32.64,12.91Z"/><path class="cls-2" d="M24.4,29.54a1.81,1.81,0,0,1-1.63-1,22.2,22.2,0,0,1-1.58-13.65,1.79,1.79,0,1,1,3.51.72A18.54,18.54,0,0,0,26,27a1.78,1.78,0,0,1-1.62,2.54Z"/><path class="cls-3" d="M19.28,44.54a22.08,22.08,0,0,1-19-11,1.81,1.81,0,0,1,0-1.8,22,22,0,0,1,38.07,0,1.76,1.76,0,0,1,0,1.8A22.07,22.07,0,0,1,19.28,44.54ZM3.89,32.64a18.38,18.38,0,0,0,30.77,0,18.4,18.4,0,0,0-30.77,0Z"/><path class="cls-2" d="M32.64,65.28a1.81,1.81,0,0,1-.9-.24,22,22,0,0,1,0-38.07,1.81,1.81,0,0,1,1.8,0,22,22,0,0,1,0,38.07A1.81,1.81,0,0,1,32.64,65.28Zm0-34.66a18.4,18.4,0,0,0,0,30.77,18.38,18.38,0,0,0,0-30.77Z"/><path class="cls-3" d="M46,44.54a22.1,22.1,0,0,1-19-11,1.81,1.81,0,0,1,0-1.8,22,22,0,0,1,38.07,0,1.76,1.76,0,0,1,0,1.8A22.08,22.08,0,0,1,46,44.54ZM30.62,32.64a18.38,18.38,0,0,0,30.77,0,18.4,18.4,0,0,0-30.77,0Z"/><path class="cls-2" d="M32.64,38.55a1.81,1.81,0,0,1-.9-.24,22,22,0,0,1-9-9.8,1.8,1.8,0,0,1,.88-2.38A1.78,1.78,0,0,1,26,27a18.42,18.42,0,0,0,6.62,7.66,18.38,18.38,0,0,0,0-30.77A18.44,18.44,0,0,0,24.7,15.58a1.79,1.79,0,0,1-3.51-.72A22.06,22.06,0,0,1,31.74.24a1.81,1.81,0,0,1,1.8,0,22,22,0,0,1,0,38.07A1.81,1.81,0,0,1,32.64,38.55Z"/><polygon class="cls-4" points="279.66 17.76 255.2 17.76 255.2 21.61 265.26 21.61 265.26 49.51 269.6 49.51 269.6 21.66 279.66 21.66 279.66 17.76"/><path class="cls-4" d="M313.62,27.67a13.62,13.62,0,0,0-1.88,2.1l-.73,1-.34-5.35h-3.83V49.51h4.43V35.4c.8-1,1.51-1.89,2.14-2.65a14.29,14.29,0,0,1,1.84-1.93,7.08,7.08,0,0,1,4.92-1.48h1.16v-3.9h-1.16A9.71,9.71,0,0,0,313.62,27.67Z"/><path class="cls-4" d="M333.58,27.67a13.62,13.62,0,0,0-1.88,2.1l-.73,1-.34-5.35h-3.82V49.51h4.42V35.4c.8-1,1.51-1.89,2.15-2.65a13.15,13.15,0,0,1,1.84-1.93,7.07,7.07,0,0,1,4.92-1.48h1.15v-3.9h-1.15A9.74,9.74,0,0,0,333.58,27.67Z"/><path class="cls-4" d="M380.89,29.29h8.93l-.11-3.85h-8.78c-7.77,0-9.4,4.11-9.4,7.55v9c0,5,3.16,7.51,9.4,7.51h8.89l-.11-3.89h-8.78c-3.51,0-5-.56-5-4V33.39C376,29.88,377.47,29.29,380.89,29.29Z"/><path class="cls-4" d="M291.71,25.44H289c-6.15,0-9.41,2.61-9.41,7.55V41.3c0,5.83,2.65,8.21,9.15,8.21h10.68V45.62H288.76c-3.14,0-3.95-1-4.32-1.85a6.86,6.86,0,0,1-.4-2.32l0-.47c0-.34,0-.41,0-.89h7.71c6.32,0,9.41-2.33,9.45-7.1v-.1h0C301.12,28,297.85,25.44,291.71,25.44Zm-7.62,8c0-3.49,1.44-4.05,4.89-4.05h2.78c3.89,0,4.93,0,4.93,3.86a3.69,3.69,0,0,1-.7,2.66c-.7.69-2,.69-3.82.68h-8.08Z"/><path class="cls-4" d="M415.53,33v-.1h0c0-4.88-3.31-7.45-9.45-7.45h-2.69c-6.15,0-9.4,2.61-9.4,7.55V41.3c0,5.83,2.64,8.21,9.14,8.21h10.68V45.62H403.13c-3.14,0-3.95-1-4.31-1.85a6.6,6.6,0,0,1-.41-2.32l0-.47c0-.34,0-.41,0-.89h7.71C412.4,40.09,415.49,37.76,415.53,33Zm-17.07.4c0-3.49,1.44-4.05,4.89-4.05h2.78c3.89,0,4.93,0,4.93,3.86a3.69,3.69,0,0,1-.7,2.66c-.7.69-2,.69-3.82.68h-8.08Z"/><path class="cls-4" d="M356.4,25.44h-9.32v3.68h9.18c3.76,0,5.51,1.13,5.51,3.56v.58c-1.49,0-3.2-.08-4.93-.08a22.85,22.85,0,0,0-5.63.63c-4.3,1.16-6.38,3.71-6.38,7.8,0,5.2,3.07,7.94,8.88,7.94,3.56,0,6.25-.94,8.21-2.87l.14,2.83h4V32.64C366,27.86,362.78,25.44,356.4,25.44Zm5.37,11.28v6a9.81,9.81,0,0,1-7.36,3.08c-3.53,0-5.11-1.36-5.11-4.41,0-3.26,2.17-4.71,7.05-4.71Z"/><path class="cls-5" d="M211.33,25.44H202v3.68h9.19c3.75,0,5.51,1.13,5.51,3.56v.58c-1.5,0-3.21-.08-4.94-.08a22.85,22.85,0,0,0-5.63.63c-4.29,1.16-6.38,3.71-6.38,7.8,0,5.2,3.07,7.94,8.88,7.94,3.56,0,6.26-.94,8.21-2.87l.14,2.83h4V32.64C221,27.86,217.72,25.44,211.33,25.44Zm5.38,11.28v6a9.83,9.83,0,0,1-7.37,3.08c-3.53,0-5.11-1.36-5.11-4.41,0-3.26,2.18-4.71,7.05-4.71Z"/><polygon class="cls-5" points="93.11 37.08 83.23 17.76 77.88 17.76 77.88 49.51 82.3 49.51 82.3 25 91.33 42.53 94.84 42.53 103.91 24.99 103.91 49.51 108.34 49.51 108.34 17.76 102.8 17.76 93.11 37.08"/><path class="cls-5" d="M126.34,25.44h-2.69c-6.16,0-9.41,2.61-9.41,7.55V41.3c0,5.83,2.65,8.21,9.14,8.21h10.69V45.62H123.38c-3.13,0-3.95-1-4.31-1.85a6.84,6.84,0,0,1-.41-2.32l0-.47c0-.34,0-.41,0-.89h7.72c6.31,0,9.4-2.33,9.45-7.1v-.1h0C135.74,28,132.48,25.44,126.34,25.44Zm-7.63,8c0-3.49,1.44-4.05,4.89-4.05h2.78c3.89,0,4.94,0,4.94,3.86a3.69,3.69,0,0,1-.71,2.66c-.69.69-2,.69-3.82.68h-8.08Z"/><path class="cls-5" d="M157.18,27a7.41,7.41,0,0,0-4.85-1.59h-3.62c-5.6,0-8.57,2.52-8.57,7.29V42c0,4.8,3.13,7.55,8.57,7.55H153c5.55,0,8.61-2.66,8.61-7.51V16.17h-4.38Zm0,14.58c0,3-1.11,4-4.23,4H149.5c-3.45,0-4.89-.57-4.89-4.1V33.17c0-2.73,1.06-3.43,2-3.72a7.59,7.59,0,0,1,2.21-.29l1.31,0,1.33,0c4,0,5.74,1.37,5.74,4.59Z"/><path class="cls-5" d="M187.32,29.29h8.94l-.12-3.85h-8.77c-7.78,0-9.41,4.11-9.41,7.55v9c0,5,3.17,7.51,9.41,7.51h8.89l-.12-3.89h-8.77c-3.52,0-5-.56-5-4V33.39C182.39,29.88,183.91,29.29,187.32,29.29Z"/><rect class="cls-5" x="227.6" y="16.22" width="4.43" height="33.29"/><rect class="cls-5" x="168.17" y="25.44" width="4.34" height="24.07"/><path class="cls-5" d="M170.33,16.17a3,3,0,1,0,3,3A3,3,0,0,0,170.33,16.17Z"/></g></g></svg>